# xmcd
#
# Track frame offsets: 
#        150
#        14404
#        34828
#        54931
#        69721
#        84924
#        98966
#        112887
#        140134
#        156739
#        175032
#        193017
#        214727
#        230555
#
# Disc length: 3276 seconds
#
# Revision: 0
# Processed by: cddbd v1.5.2PL0 Copyright (c) Steve Scherf et al.
# Submitted via: ExactAudioCopy v0.99pb3
#
DISCID=c30cca0e
DTITLE=Виктор Калина - Ветер Северный
DYEAR=2000
DGENRE=Chanson
TTITLE0=Заходи Пацан
TTITLE1=Пьяное Лето
TTITLE2=Ветер Северный
TTITLE3=А-Ту
TTITLE4=Девочка-Проказница
TTITLE5=Мама Говорила
TTITLE6=Ляля
TTITLE7=Школьные Года
TTITLE8=Светка
TTITLE9=Лодочка
TTITLE10=Я Священника Просил
TTITLE11=Поманил Рукой, Витёк (Вите Морозову)
TTITLE12=Печальная Осень
TTITLE13=Русский Шансон
EXTD=
EXTT0=
EXTT1=
EXTT2=
EXTT3=
EXTT4=
EXTT5=
EXTT6=
EXTT7=
EXTT8=
EXTT9=
EXTT10=
EXTT11=
EXTT12=
EXTT13=
PLAYORDER=
